<?xml version="1.0" encoding="UTF-8"?>
<svg id="Layer_1" data-name="Layer 1" xmlns="http://www.w3.org/2000/svg" viewBox="0 0 159.92 157.43">
  <path d="M144.86,138.24l1.66.07c5.05-.08,9.07,3.88,9.06,8.83v6.56s2.72.03,2.72.03c1,.01,1.65.99,1.62,1.86s-.72,1.84-1.83,1.84H1.85c-1.11,0-1.84-.94-1.85-1.84-.01-1.03.82-1.87,1.93-1.88h2.45s.02-6.86.02-6.86c.01-4.64,3.9-8.43,8.59-8.51l2.1-.03V58.9s-3.94-.04-3.94-.04c-3.79-.03-6.95-2.76-7.94-6.11-1.13-3.82.59-7.54,3.87-9.64L70.07,2.81c6.26-4.01,14.26-3.59,20.42.35l62.7,40.19c3.25,2.08,4.62,6.08,3.45,9.67s-4.45,5.83-8.3,5.83H59.11s0,40.36,0,40.36c0,4.65-3.5,8.45-8.18,8.68-4.53.22-8.67-3.19-8.96-7.83l-.06-7.26c-.02-2.63-2.14-4.64-4.75-4.67s-4.83,1.91-4.84,4.54l-.04,13.81c0,3.09-1.88,5.79-4.37,7.16-2.9,1.6-6.2,1.42-9.03-.38v25.05s121.93,0,121.93,0c.28,0,.29-.13.29-.45v-70.73c0-1.17.7-2.02,1.83-2.06,1.03-.04,1.93.76,1.93,1.92v71.23ZM148.39,55.14c2.35,0,4.16-1.44,4.73-3.4.61-2.11-.28-4.18-2.14-5.38L88.18,6.14c-5-3.2-11.42-3.2-16.42,0L8.64,46.59c-1.83,1.17-2.38,3.56-1.7,5.41.71,1.94,2.5,3.14,4.68,3.14h136.77ZM45.72,93.04v6.48c.02,2.67,2.35,4.7,4.94,4.63s4.68-2.13,4.67-4.79v-40.48s-36.45,0-36.45,0v47.38c.07,2.66,2.22,4.69,4.83,4.69,2.53,0,4.76-1.97,4.77-4.59l.06-13.94c.02-4.69,4.31-8.23,8.87-8.06s8.29,3.95,8.3,8.68ZM151.77,153.69l.03-6.84c-.12-2.7-2.31-4.79-5.06-4.82H13.33c-2.91,0-5.2,2.24-5.16,5.11l.02,6.55h143.59Z"/>
  <path d="M98.78,102.42c-2.17-3.54-.99-8.02,2.78-9.88l12.83-6.34c3.79-1.87,5.59-6.25,4.03-10.15l-1.35-2.73c-.44-.89-1.49-1.47-2.46-1.44.99,4.36-.91,9.16-5.08,11.22l-29.56,14.57c-5.15,2.54-11.41-.19-13.65-5.12-2.38-5.21.01-11.01,5.2-13.56l28.51-14.02c4.52-2.22,9.96-.71,12.86,3.24,3.55-.68,6.84,1.2,8.06,4.51,3.55,5.64,1.73,13.23-4.26,16.44l-13.71,6.88c-1.76.88-1.9,3.18-.79,4.69,3.44-.75,7.03.8,8.66,4.01l8.96,17.67c1.9,3.74-.03,8.26-3.65,10-3.82,1.84-8.34.41-10.41-3.28l-8.85-17.36c-1.6-3.15-1-6.92,1.88-9.36ZM79.15,94.02l27.98-13.82c3.33-1.64,4.95-5.25,3.42-8.66-1.43-3.2-5.46-4.88-8.82-3.23l-28.44,13.96c-3.47,1.7-5.16,5.48-3.42,8.96s5.77,4.52,9.29,2.78ZM116.39,123.91l-8.91-17.51c-1.01-1.98-3.42-2.64-5.33-1.73s-2.98,3.17-1.97,5.15l9.05,17.73c.98,1.93,3.52,2.4,5.28,1.54,1.84-.91,2.9-3.19,1.89-5.18Z"/>
  <path d="M78.97,20.69c6.77-.56,12.53,4.46,13.08,10.9.56,6.56-4.43,12.31-11.04,12.87s-12.52-4.3-13.12-10.8,4.29-12.41,11.08-12.97ZM76.81,40.15c4.04,1.63,8.5-.07,10.52-3.71s.91-8.14-2.46-10.53-8.12-2-11.04,1.11c-1.91,2.04-2.67,4.83-1.92,7.66.61,2.31,2.35,4.45,4.9,5.48Z"/>
</svg>