<?xml version="1.0" encoding="UTF-8"?>
<svg id="Layer_1" data-name="Layer 1" xmlns="http://www.w3.org/2000/svg" viewBox="0 0 179.47 92.61">
  <path d="M174.92,92.61H4.52s0-9.63,0-9.63h3.62s.03-50.9.03-50.9l-6.54-6.19c-1.28-1.21-2.13-2.43-1.29-4.1h55.99s-.05-11.67-.05-11.67l-7.43-6.62c-.46-1-.62-2.31-.33-3.5h82.43c.8,1.59.08,3.21-1.44,4.13l-6.32,5.96v11.7s55.95,0,55.95,0c.82,1.63.01,2.9-1.27,4.12l-6.55,6.18.03,50.89h3.61s-.03,9.63-.03,9.63ZM120.36,7.66l3.97-4.02H55.05s4.21,4.03,4.21,4.03h61.1ZM119.05,82.82V11.42s-58.63,0-58.63,0v71.46s58.63-.06,58.63-.06ZM56.3,29.38l-.05-3.95-49.31-.02,3.92,3.97h45.43ZM168.78,29.37l3.7-3.96-49.25.02-.04,3.96,45.59-.02ZM43,79.9l.03-43.89h13.35s-.15-2.87-.15-2.87H12.21s0,49.77,0,49.77l44.05-.03.1-2.92-13.36-.06ZM123.21,79.93v2.96s44.06,0,44.06,0v-49.76s-44.01,0-44.01,0l-.03,2.84,13.24.1v43.9s-13.26-.03-13.26-.03ZM56.29,76.32v-36.7s-9.22.04-9.22.04v36.65s9.22.02,9.22.02ZM132.41,76.28v-36.62s-9.22-.03-9.22-.03v36.69s9.22-.04,9.22-.04ZM52.52,89.03c.22-1.2.19-1.9-.13-2.46H8.68s.03,2.46.03,2.46h43.81ZM122.48,89.04v-2.46s-65.39,0-65.39,0c-.33.7-.19,2.02.34,2.48h65.05ZM170.88,89.03v-2.47s-44.05.02-44.05.02l.23,2.46,43.82-.02Z"/>
  <path d="M88.31,79.92l-24.7.05V14.3s24.69,0,24.69,0v65.62ZM84.24,76.31V17.89s-16.54,0-16.54,0v58.42s16.54-.02,16.54-.02Z"/>
  <path d="M115.89,79.92l-24.7.05V14.31s24.7-.01,24.7-.01v65.62ZM111.78,76.3V17.9s-16.52,0-16.52,0v58.45s16.52-.05,16.52-.05Z"/>
  <path d="M40.17,79.93l-24.71.04v-43.96s24.7-.01,24.7-.01v43.93ZM36.11,76.29v-36.66s-16.59-.02-16.59-.02v36.73s16.59-.05,16.59-.05Z"/>
  <path d="M164.04,79.93l-24.72.04v-43.97s24.7,0,24.7,0l.02,43.93ZM159.97,76.32v-36.69s-16.55,0-16.55,0v36.69s16.55,0,16.55,0Z"/>
  <path d="M127.02,56.57c.72-.46,2.59.02,2.87.6.3.63-.18,1.96-1,2.51-.52.35-1.7,0-2.38-.45-.62-.41-.61-1.95.51-2.66Z"/>
  <path d="M50.33,56.54c.57-.33,2.38,0,2.78.48.47.55.33,2-.37,2.45-.66.42-2.18.31-2.73-.18-.71-.63-.61-2.22.32-2.75Z"/>
  <path d="M78.61,45.06c1.25-.35,2.87.3,3.23,1.23s-.18,2.43-1.25,2.85c-.89.35-2.57-.05-3.1-.71-.78-.94-.38-2.95,1.13-3.37Z"/>
  <path d="M98.97,45.08c1.18-.43,2.88.25,3.32,1.17.41.86-.19,2.42-1.29,2.89-.82.35-2.55-.01-3.09-.68-.78-.98-.36-2.87,1.05-3.39Z"/>
  <path d="M30.51,56.56c.69-.38,2.51-.09,2.86.42.41.59.24,2-.36,2.52-.57.48-2.25.31-2.79-.2-.58-.54-.51-2.29.29-2.73Z"/>
  <path d="M146.48,56.65c.5-.4,2.45-.26,2.9.19.52.52.29,1.97-.4,2.62-.52.5-2.08.41-2.76-.15-.57-.47-.46-2.07.27-2.66Z"/>
</svg>