<?xml version="1.0" encoding="UTF-8"?>
<svg id="Layer_1" data-name="Layer 1" xmlns="http://www.w3.org/2000/svg" viewBox="0 0 164.63 135.65">
  <path d="M148.09,118.09H16.08c-1.32,0-2.5-1.12-2.5-2.4V37.07c.15-1.57,1.3-2.36,2.82-2.35h30.31s0-32.39,0-32.39c0-1.42,1.3-2.36,2.66-2.32h66.25c1.21.18,2.27,1.07,2.27,2.35v32.36s30.87.02,30.87.02c1.33,0,2.22,1.21,2.26,2.46v78.22c0,1.67-1.11,2.68-2.94,2.68ZM95.79,86.4v26.67s12.19.01,12.19.01h2.79c.7.02,1.35.03,2.14-.11V4.96s-61.21,0-61.21,0v108.1s17.11,0,17.11,0v-26.8c.17-1.11.96-2.28,2.2-2.28h22.6c1.17,0,2.17,1.19,2.17,2.4ZM46.71,113.04V39.69s-28.14.01-28.14.01v73.38s28.14-.04,28.14-.04ZM146.04,113.05V39.69s-28.13.01-28.13.01v73.37s28.13-.02,28.13-.02ZM90.8,113.07v-24.12s-16.97,0-16.97,0v24.13s16.97-.01,16.97-.01Z"/>
  <path d="M162.27,135.65H2.62c-1.44,0-2.47-1-2.61-2.22s.72-2.76,2.22-2.76h159.98c1.43,0,2.38,1.22,2.41,2.39.04,1.26-.79,2.36-2.35,2.59Z"/>
  <path d="M154.38,126.81H10.31c-1.45,0-2.44-1.09-2.51-2.36-.06-1.17.82-2.59,2.3-2.59h144.06c1.52,0,2.57.9,2.67,2.29.09,1.23-.8,2.66-2.45,2.66Z"/>
  <path d="M106.15,28.91h-14.99c-1.32.01-2.33-1.17-2.33-2.42l.02-14.86c0-1.43,1.43-2.22,2.69-2.21l14.62.02c1.27,0,2.29,1.17,2.29,2.37l.02,14.5c0,1.23-.8,2.61-2.32,2.61ZM103.48,23.96v-9.58s-9.63,0-9.63,0v9.59s9.63-.01,9.63-.01Z"/>
  <path d="M73.23,28.94h-14.82c-1.41-.23-2.24-1.25-2.24-2.65l-.02-14.29c0-1.27.88-2.57,2.29-2.57l14.67-.02c1.26,0,2.65.82,2.65,2.23v15.01c0,1.29-1.21,2.28-2.54,2.28ZM70.79,23.96v-9.58s-9.65,0-9.65,0v9.58s9.65,0,9.65,0Z"/>
  <path d="M105.8,54.23h-14.28c-1.28,0-2.67-.79-2.67-2.23l-.03-14.67c0-1.34.88-2.61,2.34-2.61l14.72-.02c1.56,0,2.58,1.12,2.58,2.63v14.27c0,1.53-1.04,2.61-2.66,2.61ZM103.48,49.27v-9.57s-9.64,0-9.64,0v9.61s9.64-.03,9.64-.03Z"/>
  <path d="M73.53,54.2l-14.61.04c-1.3,0-2.74-.76-2.74-2.23v-15.05c0-1.23,1.2-2.23,2.38-2.23l15.09.02c1.07,0,2.12,1.22,2.12,2.22l.02,14.68c0,1.2-.81,2.56-2.26,2.56ZM70.79,49.26v-9.57s-9.64,0-9.64,0v9.61s9.64-.05,9.64-.05Z"/>
  <path d="M73.11,79.54l-14.55-.02c-1.63,0-2.41-1.36-2.41-2.79v-14.04c.01-1.51,1.03-2.68,2.6-2.68h14.55c1.4,0,2.48,1.1,2.48,2.49v14.46c.01,1.57-1.12,2.58-2.67,2.58ZM70.79,74.56v-9.59s-9.65.01-9.65.01l.02,9.58h9.63Z"/>
  <path d="M106.19,79.5h-15.24c-1.03,0-2.09-1.18-2.09-2.16v-15.25c0-.86,1.2-2.06,2.09-2.06l14.75-.04c1.64,0,2.77,1.05,2.77,2.69v14.28c-.01,1.21-.82,2.53-2.28,2.53ZM103.48,74.55v-9.57s-9.65,0-9.65,0l.02,9.6,9.63-.02Z"/>
  <path d="M40.25,63.63h-14.68c-1.28,0-2.5-.96-2.5-2.29v-15.04c0-1.42,1.43-2.21,2.7-2.21h14.17c1.42.01,2.73.87,2.74,2.4v14.66c0,1.29-1.01,2.47-2.43,2.47ZM37.7,58.65v-9.57s-9.67,0-9.67,0v9.57s9.67,0,9.67,0Z"/>
  <path d="M40.07,88.94h-14.83c-1.27-.21-2.17-1.15-2.17-2.45v-14.66c0-1.32.94-2.18,2.22-2.41h15c1.3.01,2.39,1.11,2.39,2.4v14.86c-.02,1.34-1.3,2.26-2.62,2.26ZM37.69,83.99v-9.61s-9.66,0-9.66,0v9.6s9.66,0,9.66,0Z"/>
  <path d="M139.18,63.63h-14.87c-1.19,0-2.36-1.08-2.36-2.27v-14.88c0-1.29,1.15-2.37,2.44-2.37h14.44c1.38-.02,2.53.77,2.73,2.21v15.03c-.01,1.19-1.09,2.28-2.39,2.28ZM136.6,58.65v-9.57s-9.68,0-9.68,0v9.57s9.68,0,9.68,0Z"/>
  <path d="M138.99,88.95h-14.67c-1.15-.02-2.36-1.05-2.36-2.25v-14.87c-.01-1.33,1.12-2.4,2.44-2.4h14.8c1.18,0,2.37,1.01,2.37,2.22v15.03c0,1.33-1.24,2.27-2.56,2.27ZM136.6,83.99v-9.61s-9.68,0-9.68,0v9.61s9.68,0,9.68,0Z"/>
</svg>