<?xml version="1.0" encoding="UTF-8"?>
<svg id="Layer_1" data-name="Layer 1" xmlns="http://www.w3.org/2000/svg" viewBox="0 0 86.53 157.84">
  <path d="M47.17.03c22.49,2.22,39.67,20.58,39.35,43.13v114.68s-86.52,0-86.52,0V40.8C.9,19.06,18,1.98,39.48,0l7.69.03ZM83.22,154.59l-.16-113.05c-.03-21.29-18.19-38.02-39.25-38.34C23.1,2.89,3.65,19.09,3.6,40.38l-.31,114.23h79.93Z"/>
  <path d="M40.59,108.43l-28.99.03v-56.48s28.99,0,28.99,0v56.45ZM37.18,105.03v-49.68s-22.17,0-22.17,0v49.68s22.17,0,22.17,0Z"/>
  <path d="M74.93,108.42l-28.99.03v-56.48s28.99,0,28.99,0v56.45ZM71.52,105v-49.65s-22.17,0-22.17,0v49.69s22.17-.05,22.17-.05Z"/>
  <path d="M75.05,45.56l-63.57.04c-.79-17.99,13.5-32.62,31.2-32.9s32.98,13.92,32.37,32.86ZM71.56,42.19c-1.4-15.85-14.34-26.31-28.87-26.06s-26.83,11.54-27.67,26.13l56.54-.07Z"/>
  <path d="M40.59,147.87l-29,.03.03-33.79h28.97s0,33.76,0,33.76ZM37.18,144.62v-27.28s-22.17.01-22.17.01v27.28s22.17-.01,22.17-.01Z"/>
  <path d="M74.93,147.89h-28.99s0-33.78,0-33.78h28.97s.02,33.78.02,33.78ZM71.52,144.61v-27.27s-22.17,0-22.17,0v27.3s22.17-.02,22.17-.02Z"/>
</svg>