<?xml version="1.0" encoding="UTF-8"?>
<svg id="Layer_1" data-name="Layer 1" xmlns="http://www.w3.org/2000/svg" viewBox="0 0 121 157.08">
  <path d="M98.58,69.38H23.96c-6.33-.18-13.29-4.22-14.38-10.9L0,0h121s-9.58,58.46-9.58,58.46c-.98,6-6.72,9.85-12.84,10.92Z"/>
  <path d="M73.5,143.03c.37,4.09-.61,8-2.79,10.29-2.62,2.75-6.58,3.68-10.75,3.76-6.81.12-13.23-4.72-12.58-12.1l6.05-68.31h14.1s5.97,66.36,5.97,66.36ZM58.39,139.35c-3.1,1.34-4.18,5.07-2.77,7.64,1.3,2.37,4.95,3.53,7.18,2.4,2.89-1.47,3.89-4.85,2.67-7.37-1.15-2.37-4.52-3.77-7.08-2.67Z"/>
  <polygon points="69.03 74.92 51.96 74.93 51.87 71.06 69.11 71.07 69.03 74.92"/>
</svg>