<?xml version="1.0" encoding="UTF-8"?>
<svg id="Layer_1" data-name="Layer 1" xmlns="http://www.w3.org/2000/svg" viewBox="0 0 142.31 169.41">
  <path d="M74.53,0c7.97,1.77,14.39,7.67,16.05,15.92h19.88s.1,13.56.1,13.56l31.75.04v139.9s-142.3,0-142.3,0V29.52s31.8-.07,31.8-.07l.04-13.51,19.99-.08c1.65-8.57,8.18-14.03,15.93-15.86h6.76ZM103.58,43.5v-20.76s-19.75-.15-19.75-.15c.81-6.42-1.42-11-5.79-13.82s-10.07-2.54-14.19.28c-4.36,2.98-6.08,7.96-5.34,13.64l-19.79.04.03,20.78h64.84ZM110.51,36.28l-.04,14.02H31.87s-.1-14.05-.1-14.05l-24.83.04v126.36s128.45,0,128.45,0V36.26s-24.87.02-24.87.02Z"/>
  <polygon points="121.7 113.53 57.95 113.56 57.95 106.74 121.67 106.73 121.7 113.53"/>
  <polygon points="121.69 83.42 57.88 83.42 57.87 76.65 121.53 76.64 121.69 83.42"/>
  <polygon points="121.69 143.6 57.88 143.6 57.87 136.85 121.53 136.84 121.69 143.6"/>
  <polygon points="18.18 78.66 23.06 73.69 29 79.55 43.46 65.42 48.39 70.25 29.07 89.19 18.18 78.66"/>
  <polygon points="18.18 138.88 23.05 133.9 28.99 139.76 43.46 125.63 48.38 130.47 29.07 149.41 18.18 138.88"/>
  <polygon points="18.17 108.64 22.95 103.79 28.98 109.76 43.42 95.63 48.32 100.32 29.04 119.24 18.17 108.64"/>
</svg>