<?xml version="1.0" encoding="UTF-8"?>
<svg id="Layer_1" data-name="Layer 1" xmlns="http://www.w3.org/2000/svg" viewBox="0 0 172.09 118.32">
  <path d="M93.9,76.14h10.64s16.83,17.08,16.83,17.08v18.72s18.08,0,18.08,0l.03-7.27c1.05-.68,1.92-1.34,2.75-2.18l3.5-3.54v15.94c0,1.87-1.61,3.41-3.44,3.41h-23.63c-2.03-.01-3.57-1.57-3.56-3.64v-16.96s-21.22,0-21.22,0v16.96c0,2.11-1.63,3.7-3.7,3.64h-23.4c-1.83-.02-3.52-1.45-3.52-3.41l-.03-17.19h-21.19s-.02,17.19-.02,17.19c0,1.94-1.64,3.34-3.47,3.42H14.92c-2.21,0-3.55-1.79-3.55-3.88v-16.72s-8.19,0-8.19,0c-1.75,0-3.06-1.35-3.19-3.12v-15.35c.12-1.75,1.45-3.09,3.19-3.1h8.17s-.03-31.83-.03-31.83l-8.14-.02c-1.75,0-3.06-1.34-3.19-3.11v-15.12c0-2.03,1.5-3.34,3.42-3.34h7.62c-.25-11.45,7.53-14.58,13.58-21.57.84-.97,2.35-1.7,3.47-.6l7.01,6.84c4.91,4.36,7.31,8.61,7.3,15.35h20.47c-.03-6.54,2.18-10.6,6.83-14.95,2.4-2.21,4.7-4.32,6.89-6.76.85-.94,2.32-1.52,3.37-.49l5.46,5.38,3.89,3.75c3.34,3.52,5.09,7.97,4.89,13.05h20.57c-.27-5.55,2.06-10.34,5.98-14.15l7.73-7.52c.49-.64,1.25-1.06,1.99-1.05s1.35.53,1.94,1.11l8.29,8.11c3.68,3.59,5.55,8.25,5.37,13.51h7.48c1.82,0,3.23,1.46,3.22,3.31v9.59s-5.15,5.72-5.15,5.72c-1.26,1.39-2.84,2.19-4.56,2.93-.72.1-1.35-.15-1.81-.71-1.62-1.95-3.46-3.46-5.79-4.37l-.08-16.72-.44-5.13c-.88-1.58-1.93-2.96-3.24-4.2l-5.28-5.01-5.37,5.05c-1.32,1.24-2.32,2.66-3.22,4.23l-.46,7.01v24.23s-6.31,6.4-6.31,6.4l-.05-10.75h-21.08s-.03,31.83-.03,31.83ZM35.74,111.92V24.95s-.46-7.46-.46-7.46c-.85-1.6-1.88-2.99-3.19-4.24l-5.38-5.11-5.5,5.19c-1.26,1.19-2.22,2.6-3.08,4.11-.23,2.57-.47,4.84-.47,7.5v87.01s18.08-.04,18.08-.04ZM87.61,111.92V25.88s-.46-8.39-.46-8.39c-.82-1.49-1.75-2.84-2.97-4l-5.61-5.35-5.5,5.19c-1.27,1.19-2.23,2.61-3.09,4.12-.24,2.57-.47,4.84-.47,7.5v87.01s18.09-.04,18.09-.04ZM63.22,76.14l-.03-31.84h-21.11s-.04,31.85-.04,31.85h21.18Z"/>
  <path d="M125.74,88.93l-7.53-7.64,6.15-6.25c.22-.22.04-.84-.16-.97-.27-.18-.88-.14-1.14.07l-5.94,6.05-5.82-5.91,12.91-13.14c.05-.3.07-.75-.01-.96-.1-.25-.76-.25-1.09-.16l-12.9,13.11-1.42-1.38c-.17-.17-.44-.78-.35-1.01s.35-.54.62-.82l16.04-16.29,28.29,28.74-16.02,16.33c-.39.4-1.24.53-1.63.46l-1.41-1.52,9.14-9.27c.09-.34.12-.89-.04-1.11s-.73-.29-1.14-.28l-9.24,9.4-6.08-6.17,6.18-6.29c.32-.32.41-.97.17-1.31-.2-.29-1.06-.37-1.33-.09l-6.27,6.42Z"/>
  <path d="M126.73,51.98l4.47-4.57c.64-.66,1.55-1.13,2.3-1.61,1.98-1.26,4.21-1.21,5.88.5l3.11,3.15c1.02,1.03,4.23,1.39,6.17.73,4.41-1.5,6.63-3.61,9.73-7.08l5.46-6.1c1.85-2.06,5.45-3.28,7.3-1.42s.66,5.56-1.49,7.54l-7.45,6.87-2.9,3.35c-1.48,1.71-2.22,3.87-2.68,6.08-.56,2.67.34,5.07,2.37,6.82,1.14.98,2.19,2.03,2.83,3.46.36,2.14-.31,4.26-1.82,5.83l-4.97,5.19-28.3-28.76ZM168.15,40.26c.19-.87-.42-1.76-1.31-1.67-1.49.15-2.77,1.35-3.04,2.92-.06.35.13.98.33,1.21.8.89,3.47.01,4.02-2.45Z"/>
  <path d="M129.21,30.59c2.34-.71,4.58.68,5.21,2.87s-.58,4.62-2.9,5.27c-2.05.58-4.35-.54-5.07-2.76s.35-4.65,2.76-5.38Z"/>
  <path d="M25.67,83.96c2.37-.6,4.54.87,5.08,3.09s-.78,4.6-3.16,5.16c-2.04.48-4.3-.74-4.92-3.03-.57-2.11.54-4.6,2.99-5.22Z"/>
  <path d="M25.47,30.6c2.32-.72,4.56.65,5.23,2.83s-.56,4.63-2.91,5.31c-2,.57-4.32-.53-5.05-2.79-.67-2.07.32-4.6,2.73-5.35Z"/>
  <path d="M77.55,83.95c2.37-.6,4.53.9,5.06,3.1s-.8,4.58-3.15,5.15c-2.04.49-4.32-.77-4.92-3s.55-4.62,3.01-5.25Z"/>
  <path d="M77.34,30.6c2.33-.72,4.57.67,5.22,2.84s-.56,4.62-2.91,5.3c-2.01.58-4.33-.53-5.06-2.77-.68-2.08.34-4.62,2.75-5.37Z"/>
</svg>