<?xml version="1.0" encoding="UTF-8"?>
<svg id="Layer_1" data-name="Layer 1" xmlns="http://www.w3.org/2000/svg" viewBox="0 0 152.56 122.39">
  <path d="M151.42,118.95c.97.01,1.26,1.45,1.1,2.04-.26.96-.95,1.4-2.11,1.4H1.56c-.95,0-1.41-.8-1.53-1.39s.06-2.04.85-2.04l7.88-.08.04-71.97.02-35.63-2.69-.16c-.95-.06-1.73-.84-1.78-1.78-.13-2.43-.18-4.75-.1-7.15C4.29.91,5.18.03,6.56.03l27.65-.03,107.85.02,4.32.09c1.05.02,1.9.87,1.89,1.9l-.07,7.31c0,.86-.74,1.72-1.61,1.77l-2.86.17v107.57s7.68.11,7.68.11ZM144.76,7.69V3.58s-136.99,0-136.99,0l.02,4.1h136.97ZM40.78,22.36h58.19s28.95-.07,28.95-.07c.67,0,1.31-.03,1.73.37.3.29.47.82.62,1.45l-.02,94.78h10.01s0-107.62,0-107.62l-127.98.03v107.6s10.02,0,10.02,0l-.04-86.7v-8.18c0-.38.34-1.14.6-1.38s.95-.34,1.4-.34l16.5.05ZM126.67,29.06l.05-3.31H25.8s.06,3.31.06,3.31h100.81ZM126.61,35.87v-3.22s-100.73,0-100.73,0v3.22s100.73,0,100.73,0ZM126.63,39.53l-37.77-.02H25.8s.06,3.24.06,3.24h100.8s-.02-3.23-.02-3.23ZM126.67,49.57l-.04-3.44H25.96s-.04,3.43-.04,3.43h100.74ZM126.68,56.51v-3.45s-100.8,0-100.8,0v3.45s100.8,0,100.8,0ZM126.72,72.2v-12.21s-100.89,0-100.89,0v12.22s100.89,0,100.89,0ZM126.72,87.63v-11.93s-100.87,0-100.87,0v11.93s100.87,0,100.87,0ZM126.71,103.24v-12.14s-100.87,0-100.87,0v12.14s100.87,0,100.87,0ZM126.73,118.89v-12.21s-100.86,0-100.86,0v12.21s100.86,0,100.86,0Z"/>
  <path d="M81.46,114.88l-10.82-.07c-1.04,0-1.55-1.21-1.44-1.97.15-1.07.98-1.56,2.08-1.55l10.42.06c1.11,0,1.8.87,1.76,1.83-.04,1.07-.82,1.71-2,1.71Z"/>
</svg>