<?xml version="1.0" encoding="UTF-8"?>
<svg id="Layer_1" data-name="Layer 1" xmlns="http://www.w3.org/2000/svg" viewBox="0 0 168.24 179.72">
  <path d="M86.61,0l2.77,3.88,78.86,55.32v.66s-4.25,4.85-4.25,4.85l-22.49-15.72.16,77.96h-7.13s-.24-83.08-.24-83.08L83.79,8.45,27.82,48.11l.16,78.34h-7.08s-.2-73.25-.2-73.25l-16.88,11.87-3.82-5.79L74.6,6.44c2.88-2.04,4.96-3.96,7.06-6.43h4.94Z"/>
  <path d="M74.53,179.71h-3.3c-.61-.57-3.29-2.6-3.3-4.09l-.22-19.59c-.02-1.95,1.51-4.07,2.9-5.42l.25-18.46,47.77-27.63-.15-12.91-5.77.09c-1.01,3.9-4.06,6.97-8.39,6.99l-50.12.14c-5.35.01-9.05-3.89-9.08-8.53s3.63-8.67,8.98-8.68l49.55-.13c4.68-.01,7.88,3,9.21,7.03l8.84.33v17.51s-47.63,27.54-47.63,27.54l-.05,16.49c2.16,1.19,3.61,2.87,3.86,4.85l.04,20.7-3.39,3.78Z"/>
  <rect x="66.16" y="53.27" width="13.5" height="13.05" transform="translate(-.29 .35) rotate(-.28)"/>
  <polygon points="97.71 66.18 84.26 66.27 84.22 53.17 97.7 53.13 97.71 66.18"/>
  <polygon points="79.61 49.75 66.07 49.74 66.05 36.79 79.43 36.77 79.61 49.75"/>
  <polygon points="97.6 49.64 84.07 49.68 84.05 36.62 97.53 36.57 97.6 49.64"/>
</svg>