<?xml version="1.0" encoding="UTF-8"?>
<svg id="Layer_1" data-name="Layer 1" xmlns="http://www.w3.org/2000/svg" viewBox="0 0 173.93 123.76">
  <path d="M61.79,0l57.41,50.4c3.22,2.8,2.76,9.17,1.14,12.01-2.17,3.81-5.78,4.99-10.05,3.03v55.46s-1.13,2.86-1.13,2.86H11.39c-.41-.96-.85-2.75-.85-4.28v-54.35c-2.82,1.27-5.55,1.32-7.74-.57-3.73-3.22-3.51-11.89-.65-14.37L59.78,0h2.01ZM74.83,85.92v32.04s30.66,0,30.66,0v-55.82S60.88,23.42,60.88,23.42L15.36,62.24v55.73s31.18,0,31.18,0v-32.07s28.29.02,28.29.02Z"/>
  <path d="M163.87,123.76h-46.78s.34-37.84.34-37.84l7.8-.02v32.9s35.55,0,35.55,0l-.03-53.5-39-33.16-5.75,4.91-11.65-10.13,17.68-15.26,31.72,27.45.12-12.68h13.27s-.01,24.3-.01,24.3l4.25,3.68c3.75,3.24,3.04,10.89-.1,13.22-1.71,1.27-3.86,1.19-6.42.38v52.91s-1,2.86-1,2.86Z"/>
  <polygon points="59.33 58.62 51.95 58.64 51.92 49.63 59.22 49.61 59.33 58.62"/>
  <polygon points="69.42 58.62 62.03 58.64 62.03 49.63 69.35 49.62 69.42 58.62"/>
  <polygon points="69.42 70.46 62.03 70.51 62.03 61.52 69.37 61.51 69.42 70.46"/>
  <polygon points="59.33 70.46 51.99 70.5 51.92 61.52 59.26 61.52 59.33 70.46"/>
</svg>